<svg xmlns="http://www.w3.org/2000/svg" width="35.612" height="35.524" viewBox="0 0 35.612 35.524">
  <path id="add-user" d="M14.538.216c-4.177,0-7.53,2.869-7.53,8.352A14.152,14.152,0,0,0,10.6,18.043c.845,2.247-.678,3.084-.994,3.2-4.371,1.6-9.477,4.511-9.477,7.4v1.08c0,3.936,7.5,4.846,14.451,4.846q2.274,0,4.543-.172a10.761,10.761,0,0,1-.692-13.976A3.443,3.443,0,0,1,18.518,18a14.106,14.106,0,0,0,3.549-9.433c0-5.482-3.356-8.349-7.53-8.349ZM27,18.259A8.74,8.74,0,1,0,35.741,27,8.741,8.741,0,0,0,27,18.259Zm-1.212,3.9h2.423v3.592H31.8v2.509H28.211v3.591H25.788V28.254H22.154V25.745h3.635V22.154Z" transform="translate(-0.129 -0.216)" fill="#904bff"/>
</svg>
