<svg xmlns="http://www.w3.org/2000/svg" width="16.919" height="20" viewBox="0 0 16.919 20">
  <path id="bookmark" d="M15.386,0a1.46,1.46,0,0,1,.581.119,1.491,1.491,0,0,1,.694.542,1.4,1.4,0,0,1,.258.819V18.52a1.4,1.4,0,0,1-.258.819,1.54,1.54,0,0,1-1.275.648,1.571,1.571,0,0,1-1.1-.423L8.46,13.959,2.63,19.564a1.576,1.576,0,0,1-1.1.436,1.46,1.46,0,0,1-.581-.119,1.491,1.491,0,0,1-.694-.542A1.4,1.4,0,0,1,0,18.52V1.48A1.4,1.4,0,0,1,.258.661,1.491,1.491,0,0,1,.952.119,1.46,1.46,0,0,1,1.534,0H15.387Z" fill="#904bff"/>
</svg>
