<svg id="calendar-plus" xmlns="http://www.w3.org/2000/svg" width="20" height="20" viewBox="0 0 20 20">
  <path id="Path_1151" data-name="Path 1151" d="M15.5,15.75a.625.625,0,0,1,.625.625v2.5a.625.625,0,0,1-.625.625H13a.625.625,0,0,1,0-1.25h1.875V16.375A.625.625,0,0,1,15.5,15.75Z" transform="translate(-5.5 -7)" fill="#007bff" fill-rule="evenodd"/>
  <path id="Path_1152" data-name="Path 1152" d="M16.875,20.875a.625.625,0,0,1,.625-.625H20a.625.625,0,0,1,0,1.25H18.125v1.875a.625.625,0,0,1-1.25,0Z" transform="translate(-7.5 -9)" fill="#007bff" fill-rule="evenodd"/>
  <path id="Path_1153" data-name="Path 1153" d="M1.25,6V18.5A1.25,1.25,0,0,0,2.5,19.75h15a1.25,1.25,0,0,0,1.25-1.25V6ZM2.5,2.25A2.5,2.5,0,0,0,0,4.75V18.5A2.5,2.5,0,0,0,2.5,21h15A2.5,2.5,0,0,0,20,18.5V4.75a2.5,2.5,0,0,0-2.5-2.5Z" transform="translate(0 -1)" fill="#007bff" fill-rule="evenodd"/>
  <path id="Path_1154" data-name="Path 1154" d="M7.375,0A.625.625,0,0,1,8,.625V1.25a.625.625,0,0,1-1.25,0V.625A.625.625,0,0,1,7.375,0Zm11.25,0a.625.625,0,0,1,.625.625V1.25a.625.625,0,0,1-1.25,0V.625A.625.625,0,0,1,18.625,0Z" transform="translate(-3)" fill="#007bff" fill-rule="evenodd"/>
</svg>
