<svg xmlns="http://www.w3.org/2000/svg" width="36" height="24.75" viewBox="0 0 36 24.75">
  <path id="cloudy" d="M26.438,30.375H8.156A8.981,8.981,0,0,1,2.49,28.633,6.829,6.829,0,0,1,0,23.063c0-4.048,2.953-6.369,6.157-7.084a1.125,1.125,0,0,0,.852-.871,12.368,12.368,0,0,1,3.458-6.469A10.8,10.8,0,0,1,18,5.625,10.236,10.236,0,0,1,24.657,8a10.986,10.986,0,0,1,2.957,3.938,1.125,1.125,0,0,0,.8.644,10.314,10.314,0,0,1,4.864,2.38A8.412,8.412,0,0,1,36,21.375a8.677,8.677,0,0,1-2.847,6.51A9.926,9.926,0,0,1,26.438,30.375Z" transform="translate(0 -5.625)" fill="#007bff"/>
</svg>
