<svg xmlns="http://www.w3.org/2000/svg" width="54.675" height="54.482" viewBox="0 0 54.675 54.482">
  <g id="Group_1117" data-name="Group 1117" transform="translate(-941.325 -385.759)">
    <path id="Icon_awesome-plus" data-name="Icon awesome-plus" d="M35.773,17.385H23.39V5A2.752,2.752,0,0,0,20.638,2.25H17.886A2.752,2.752,0,0,0,15.135,5V17.385H2.752A2.752,2.752,0,0,0,0,20.136v2.752A2.752,2.752,0,0,0,2.752,25.64H15.135V38.023a2.752,2.752,0,0,0,2.752,2.752h2.752a2.752,2.752,0,0,0,2.752-2.752V25.64H35.773a2.752,2.752,0,0,0,2.752-2.752V20.136A2.752,2.752,0,0,0,35.773,17.385Z" transform="translate(970.157 384.168) rotate(45)" fill="#904bff"/>
    <g id="Ellipse_12" data-name="Ellipse 12" transform="translate(942 386)" fill="none" stroke="#904bff" stroke-width="4">
      <circle cx="27" cy="27" r="27" stroke="none"/>
      <circle cx="27" cy="27" r="25" fill="none"/>
    </g>
  </g>
</svg>
