<svg xmlns="http://www.w3.org/2000/svg" width="11.01" height="20.36" viewBox="0 0 11.01 20.36">
  <g id="facebook_icon" data-name="facebook icon" transform="translate(0 0)">
    <path id="facebook_icon-2" data-name="facebook icon" d="M1192.736,29.48l-2.638,0a4.637,4.637,0,0,0-4.885,5.01V36.8h-2.654a.417.417,0,0,0-.417.415V40.56a.415.415,0,0,0,.417.415h2.654v8.449a.416.416,0,0,0,.415.413h3.465a.414.414,0,0,0,.415-.413V40.975h3.105a.412.412,0,0,0,.413-.415l0-3.347a.412.412,0,0,0-.12-.293.421.421,0,0,0-.295-.122h-3.105V34.839c0-.941.225-1.419,1.45-1.419h1.778a.417.417,0,0,0,.416-.416V29.9a.417.417,0,0,0-.416-.415" transform="translate(-1182.143 -29.477)" fill="#505c69"/>
  </g>
</svg>
