<svg xmlns="http://www.w3.org/2000/svg" width="38.566" height="12.482" viewBox="0 0 38.566 12.482">
  <g id="g4158" transform="translate(-81.166 -105.048)">
    <path id="polygon9" d="M436.631,122.809h-3.124l1.954-12.082h3.124Z" transform="translate(-338.753 -5.46)" fill="#00579f"/>
    <path id="path11" d="M574.55,105.562a7.7,7.7,0,0,0-2.8-.514c-3.085,0-5.258,1.645-5.271,4-.026,1.735,1.556,2.7,2.738,3.278,1.209.591,1.62.977,1.62,1.5-.012.809-.977,1.183-1.876,1.183a6.218,6.218,0,0,1-2.931-.643l-.411-.193-.437,2.712a9.507,9.507,0,0,0,3.484.643c3.278,0,5.412-1.62,5.438-4.126.012-1.375-.822-2.429-2.622-3.291-1.093-.553-1.762-.926-1.762-1.491.013-.514.566-1.041,1.8-1.041a5.308,5.308,0,0,1,2.327.463l.283.128.425-2.609Z" transform="translate(-465.347 0)" fill="#00579f"/>
    <path id="path13" d="M795.355,118.529c.257-.694,1.247-3.381,1.247-3.381-.013.026.257-.707.411-1.157l.218,1.041s.592,2.892.72,3.5Zm3.856-7.8H796.8a1.542,1.542,0,0,0-1.633,1l-4.641,11.08H793.8l.656-1.812h4.011c.09.424.373,1.812.373,1.812h2.893l-2.52-12.082Z" transform="translate(-682 -5.46)" fill="#00579f"/>
    <path id="path15" d="M173.549,110.727l-3.06,8.239-.334-1.671a9.248,9.248,0,0,0-4.319-5.065l2.8,10.566h3.3l4.911-12.07Z" transform="translate(-81.405 -5.46)" fill="#00579f"/>
    <path id="path17" d="M86.244,110.727H81.217l-.051.244A10.454,10.454,0,0,1,88.75,117.3l-1.093-5.553a1.293,1.293,0,0,0-1.414-1.016Z" transform="translate(0 -5.46)" fill="#faa61a"/>
  </g>
</svg>
