<svg xmlns="http://www.w3.org/2000/svg" width="15.722" height="20.963" viewBox="0 0 15.722 20.963">
  <path id="Icon_awesome-id-badge" data-name="Icon awesome-id-badge" d="M13.757,0H1.965A1.966,1.966,0,0,0,0,1.965V19a1.966,1.966,0,0,0,1.965,1.965H13.757A1.966,1.966,0,0,0,15.722,19V1.965A1.966,1.966,0,0,0,13.757,0ZM5.9,1.31H9.826a.655.655,0,0,1,0,1.31H5.9a.655.655,0,0,1,0-1.31ZM7.861,6.551a2.62,2.62,0,1,1-2.62,2.62A2.623,2.623,0,0,1,7.861,6.551Zm4.586,9.7a.859.859,0,0,1-.917.786H4.193a.859.859,0,0,1-.917-.786V15.46A2.578,2.578,0,0,1,6.027,13.1h.2a4.217,4.217,0,0,0,3.259,0h.2a2.578,2.578,0,0,1,2.751,2.358Z" fill="#343a40"/>
</svg>
