<svg xmlns="http://www.w3.org/2000/svg" width="16.322" height="18.654" viewBox="0 0 16.322 18.654">
  <path id="Icon_awesome-unlock" data-name="Icon awesome-unlock" d="M14.573,9.327H5.538V5.571a2.623,2.623,0,1,1,5.246-.033v.583A.872.872,0,0,0,11.659,7h1.166a.872.872,0,0,0,.874-.874V5.538a5.538,5.538,0,1,0-11.076.055V9.327H1.749A1.749,1.749,0,0,0,0,11.076V16.9a1.749,1.749,0,0,0,1.749,1.749H14.573A1.749,1.749,0,0,0,16.322,16.9V11.076A1.749,1.749,0,0,0,14.573,9.327Z" transform="translate(0 0)" fill="#343a40"/>
</svg>
