<svg xmlns="http://www.w3.org/2000/svg" width="18.1" height="18.1" viewBox="0 0 18.1 18.1">
  <g id="Group_968" data-name="Group 968" transform="translate(2 -461.9)">
    <g id="Group_969" data-name="Group 969" transform="translate(-2)">
      <g id="Group_968-2" data-name="Group 968">
        <rect id="Rectangle_1991" data-name="Rectangle 1991" width="18.1" height="0.603" transform="translate(0 479.397)" fill="#007bff"/>
        <path id="Path_1175" data-name="Path 1175" d="M1.207,478.793H4.223a.3.3,0,0,0,.3-.3v-5.43a.3.3,0,0,0-.3-.3H1.207a.3.3,0,0,0-.3.3v5.43A.3.3,0,0,0,1.207,478.793Z" fill="#007bff"/>
        <path id="Path_1176" data-name="Path 1176" d="M9.653,478.793H12.67a.3.3,0,0,0,.3-.3v-9.05a.3.3,0,0,0-.3-.3H9.653a.3.3,0,0,0-.3.3v9.05A.3.3,0,0,0,9.653,478.793Z" fill="#007bff"/>
        <path id="Path_1177" data-name="Path 1177" d="M5.43,478.793H8.446a.3.3,0,0,0,.3-.3v-12.67a.3.3,0,0,0-.3-.3H5.43a.3.3,0,0,0-.3.3v12.67A.3.3,0,0,0,5.43,478.793Z" fill="#007bff"/>
        <path id="Path_1178" data-name="Path 1178" d="M13.876,478.793h3.017a.3.3,0,0,0,.3-.3V462.2a.3.3,0,0,0-.3-.3H13.876a.3.3,0,0,0-.3.3v16.29A.3.3,0,0,0,13.876,478.793Z" fill="#007bff"/>
      </g>
    </g>
  </g>
</svg>
