<svg xmlns="http://www.w3.org/2000/svg" width="21.1" height="12.057" viewBox="0 0 21.1 12.057">
  <g id="Icon_ionic-ios-videocam" data-name="Icon ionic-ios-videocam" transform="translate(-2.25 -9)">
    <path id="Path_1143" data-name="Path 1143" d="M29.366,10.8a.8.8,0,0,0-.438.127L24.854,13.5a.4.4,0,0,0-.188.339v3.579a.4.4,0,0,0,.188.339l4.074,2.572a.847.847,0,0,0,.438.127h.98a.4.4,0,0,0,.405-.4V11.2a.4.4,0,0,0-.405-.4Z" transform="translate(-7.401 -0.594)" fill="#343a40"/>
    <path id="Path_1144" data-name="Path 1144" d="M13.624,21.057H4.676A2.433,2.433,0,0,1,2.25,18.636V11.421A2.429,2.429,0,0,1,4.671,9h8.949a2.429,2.429,0,0,1,2.421,2.421v7.211A2.423,2.423,0,0,1,13.624,21.057Z" fill="#343a40"/>
  </g>
</svg>
