<svg xmlns="http://www.w3.org/2000/svg" width="19.033" height="19.034" viewBox="0 0 19.033 19.034">
  <g id="instagram_icon" data-name="instagram icon" transform="translate(0 0)">
    <path id="Path_2" data-name="Path 2" d="M1214.181,29.476h-8.527a5.258,5.258,0,0,0-5.251,5.253v8.529a5.257,5.257,0,0,0,5.251,5.252h8.527a5.259,5.259,0,0,0,5.255-5.252V34.729A5.259,5.259,0,0,0,1214.181,29.476Zm3.566,13.782a3.566,3.566,0,0,1-3.563,3.563h-8.53a3.568,3.568,0,0,1-3.564-3.563V34.729a3.569,3.569,0,0,1,3.564-3.564h8.527a3.568,3.568,0,0,1,3.566,3.564Z" transform="translate(-1200.402 -29.476)" fill="#505c69"/>
    <path id="Path_3" data-name="Path 3" d="M1208.422,32.593a4.9,4.9,0,1,0,4.9,4.9A4.911,4.911,0,0,0,1208.422,32.593Zm0,8.119a3.216,3.216,0,1,1,3.216-3.216A3.219,3.219,0,0,1,1208.422,40.712Z" transform="translate(-1198.906 -27.979)" fill="#505c69"/>
    <path id="Path_4" data-name="Path 4" d="M1210.686,31.625a1.238,1.238,0,1,0,.875,2.114,1.239,1.239,0,0,0-.875-2.114Z" transform="translate(-1196.059 -28.444)" fill="#505c69"/>
  </g>
</svg>
