<svg xmlns="http://www.w3.org/2000/svg" width="19.883" height="19" viewBox="0 0 19.883 19">
  <path id="Path_1074" data-name="Path 1074" d="M0,2.209A2.067,2.067,0,0,1,.672.626,2.464,2.464,0,0,1,2.418,0,2.391,2.391,0,0,1,4.126.616,2.165,2.165,0,0,1,4.8,2.267,2.021,2.021,0,0,1,4.145,3.8a2.469,2.469,0,0,1-1.766.633H2.361A2.349,2.349,0,0,1,.653,3.8,2.127,2.127,0,0,1,0,2.209ZM.249,19V6.182H4.51V19Zm6.621,0h4.261V11.843a2.763,2.763,0,0,1,.154-1.036A2.783,2.783,0,0,1,12.1,9.7a2.085,2.085,0,0,1,1.372-.451q2.15,0,2.149,2.9V19h4.261V11.651a6.177,6.177,0,0,0-1.343-4.309,4.583,4.583,0,0,0-3.551-1.468,4.355,4.355,0,0,0-3.858,2.13v.038h-.019l.019-.038V6.182H6.871Q6.909,6.8,6.909,10T6.871,19Z" transform="translate(0 -0.002)" fill="#505c69"/>
</svg>
