<svg id="Group_1029" data-name="Group 1029" xmlns="http://www.w3.org/2000/svg" width="38.566" height="30" viewBox="0 0 38.566 30">
  <path id="Path_1169" data-name="Path 1169" d="M348.8,342.089V340.1a1.178,1.178,0,0,0-1.245-1.258,1.226,1.226,0,0,0-1.112.563,1.162,1.162,0,0,0-1.046-.563,1.047,1.047,0,0,0-.927.47v-.391h-.689v3.164h.7v-1.754a.74.74,0,0,1,.775-.841c.457,0,.688.3.688.834v1.761h.7v-1.754a.746.746,0,0,1,.775-.841c.47,0,.7.3.7.834v1.761Zm10.288-3.164h-1.125v-.96h-.7v.96h-.642v.629h.642V341c0,.735.285,1.172,1.1,1.172a1.617,1.617,0,0,0,.861-.245l-.2-.589a1.272,1.272,0,0,1-.609.179c-.344,0-.457-.212-.457-.53v-1.43h1.125Zm5.872-.079a.933.933,0,0,0-.834.463v-.384h-.682v3.164h.689v-1.774c0-.523.225-.814.675-.814a1.122,1.122,0,0,1,.43.079l.212-.649A1.471,1.471,0,0,0,364.964,338.845Zm-8.878.331a2.367,2.367,0,0,0-1.291-.331c-.8,0-1.317.384-1.317,1.013,0,.516.384.834,1.092.933l.324.046c.377.053.556.152.556.331,0,.245-.252.384-.722.384a1.686,1.686,0,0,1-1.053-.331l-.324.536a2.283,2.283,0,0,0,1.37.411c.914,0,1.443-.43,1.443-1.033,0-.556-.417-.847-1.106-.947l-.324-.046c-.3-.04-.536-.1-.536-.311,0-.232.225-.371.6-.371a2.041,2.041,0,0,1,.986.271Zm18.444-.331a.933.933,0,0,0-.834.463v-.384h-.682v3.164h.688v-1.774c0-.523.225-.814.675-.814a1.122,1.122,0,0,1,.43.079l.212-.649a1.473,1.473,0,0,0-.49-.086Zm-8.871,1.662a1.6,1.6,0,0,0,1.688,1.662,1.658,1.658,0,0,0,1.139-.377l-.331-.556a1.391,1.391,0,0,1-.828.285,1.015,1.015,0,0,1,0-2.026,1.391,1.391,0,0,1,.828.285l.331-.556a1.658,1.658,0,0,0-1.139-.377,1.6,1.6,0,0,0-1.688,1.662Zm6.448,0v-1.582h-.689v.384a1.2,1.2,0,0,0-1-.463,1.664,1.664,0,0,0,0,3.323,1.2,1.2,0,0,0,1-.463v.384h.689Zm-2.562,0a.949.949,0,1,1,.258.717.958.958,0,0,1-.258-.717Zm-8.309-1.662a1.663,1.663,0,0,0,.046,3.323,1.923,1.923,0,0,0,1.3-.444l-.338-.51a1.507,1.507,0,0,1-.92.331.879.879,0,0,1-.947-.775h2.35c.007-.086.013-.172.013-.265A1.517,1.517,0,0,0,361.237,338.845Zm-.013.616a.786.786,0,0,1,.8.768h-1.642A.815.815,0,0,1,361.224,339.461Zm17.273,1.046v-2.853h-.689v1.655a1.2,1.2,0,0,0-1-.463,1.664,1.664,0,0,0,0,3.323,1.2,1.2,0,0,0,1-.463v.384h.689Zm1.148,1.124a.315.315,0,0,1,.125.025.323.323,0,0,1,.1.067.317.317,0,0,1,.069.1.309.309,0,0,1,0,.244.319.319,0,0,1-.069.1.33.33,0,0,1-.1.068.31.31,0,0,1-.125.025.32.32,0,0,1-.3-.193.31.31,0,0,1,0-.244.319.319,0,0,1,.068-.1.313.313,0,0,1,.1-.067A.323.323,0,0,1,379.644,341.63Zm0,.56a.233.233,0,0,0,.095-.019.246.246,0,0,0,.077-.4.242.242,0,0,0-.077-.052.236.236,0,0,0-.095-.019.247.247,0,0,0-.1.019.24.24,0,0,0-.078.052.245.245,0,0,0,.078.4A.243.243,0,0,0,379.644,342.19Zm.018-.392a.133.133,0,0,1,.087.025.083.083,0,0,1,.03.068.08.08,0,0,1-.024.06.115.115,0,0,1-.069.029l.1.11h-.075l-.089-.109h-.029v.109h-.062V341.8Zm-.072.055v.078h.072a.071.071,0,0,0,.039-.01.033.033,0,0,0,.015-.03.033.033,0,0,0-.015-.029.071.071,0,0,0-.039-.01Zm-3.656-1.346a.949.949,0,1,1,.258.717A.958.958,0,0,1,375.934,340.507Zm-23.251,0v-1.582h-.689v.384a1.2,1.2,0,0,0-1-.463,1.664,1.664,0,0,0,0,3.323,1.2,1.2,0,0,0,1-.463v.384h.689Zm-2.562,0a.949.949,0,1,1,.258.717A.958.958,0,0,1,350.121,340.507Z" transform="translate(-341.788 -312.259)" fill="#231f20"/>
  <g id="Group_1028" data-name="Group 1028" transform="translate(0 0)">
    <rect id="Rectangle_2088" data-name="Rectangle 2088" width="10.429" height="18.74" transform="translate(14.069 2.548)" fill="#ff5f00"/>
    <path id="Path_1170" data-name="Path 1170" d="M352.484,272.868a11.9,11.9,0,0,1,4.552-9.37,11.918,11.918,0,1,0,0,18.74A11.9,11.9,0,0,1,352.484,272.868Z" transform="translate(-337.753 -260.949)" fill="#eb001b"/>
    <path id="Path_1171" data-name="Path 1171" d="M415.283,272.868A11.918,11.918,0,0,1,396,282.238a11.92,11.92,0,0,0,0-18.74,11.918,11.918,0,0,1,19.283,9.37Z" transform="translate(-376.717 -260.949)" fill="#f79e1b"/>
    <path id="Path_1172" data-name="Path 1172" d="M450.327,318.322v-.384h.155v-.078h-.394v.078h.155v.384Zm.765,0v-.463h-.121l-.139.318-.139-.318h-.121v.463h.085v-.349l.13.3h.089l.13-.3v.35Z" transform="translate(-412.897 -299.018)" fill="#f79e1b"/>
  </g>
</svg>
