<svg xmlns="http://www.w3.org/2000/svg" width="154.049" height="29.626" viewBox="0 0 154.049 29.626">
  <g id="Group_898" data-name="Group 898" transform="translate(-1377.938 -334.194)">
    <text id="En_Çok_Tercih_Edilen" data-name="En Çok Tercih Edilen" transform="translate(1450 354.007)" fill="#007bff" font-size="14" font-family="Roboto-Medium, Roboto" font-weight="500"><tspan x="-63.957" y="0">En Çok Tercih Edilen</tspan></text>
    <path id="bookmark-line" d="M16.157-19.865a1.482,1.482,0,0,1-1.045-.43L3.076-31.216-9.423-20.3a1.482,1.482,0,0,1-1.641.36,1.482,1.482,0,0,1-.922-1.4v-151A1.482,1.482,0,0,1-10.5-173.83l26.662-.052a1.482,1.482,0,0,1,1.482,1.482V-21.347A1.482,1.482,0,0,1,16.157-19.865Zm0-1.482V-172.4l-26.662.052v151L3.076-33.305Z" transform="translate(1551.82 351.833) rotate(-90)" fill="#007bff"/>
  </g>
</svg>
