<svg xmlns="http://www.w3.org/2000/svg" width="78.994" height="78.994" viewBox="0 0 78.994 78.994">
  <g id="Outline" transform="translate(-2 -2)">
    <g id="Group_929" data-name="Group 929" transform="translate(2 2)">
      <path id="Path_1136" data-name="Path 1136" d="M79.678,42.864a1.317,1.317,0,0,0-1.317,1.317V57.346a3.95,3.95,0,0,1-3.95,3.95H73.095V58.663a5.266,5.266,0,0,0-4.1-5.125,6.517,6.517,0,0,0,1.467-4.091V44.181A6.591,6.591,0,0,0,63.879,37.6H58.612A1.317,1.317,0,0,0,57.3,38.914V49.447a6.517,6.517,0,0,0,1.467,4.091,5.266,5.266,0,0,0-4.1,5.125V61.3h-3.95V59.737a3.95,3.95,0,0,0,2.633-3.707V54.713a3.95,3.95,0,0,0-7.9,0V56.03a3.95,3.95,0,0,0,2.633,3.707V61.3H42.814V33.648h31.6a1.317,1.317,0,0,0,0-2.633h-3.95V28.382a5.214,5.214,0,0,0-1.09-3.172,9.23,9.23,0,0,0,3.723-7.361A11.828,11.828,0,0,0,53.257,9.124,3.95,3.95,0,1,0,49.4,13.9a3.9,3.9,0,0,0,.718-.072,11.783,11.783,0,0,0-.718,4.022A9.233,9.233,0,0,0,53.12,25.21a5.214,5.214,0,0,0-1.09,3.172v2.633H42.814V7.317a1.317,1.317,0,0,0-2.633,0v23.7h-23.7V28.382a2.633,2.633,0,0,1,2.633-2.633h7.9a2.633,2.633,0,0,1,2.467,1.758,1.317,1.317,0,0,0,2.482-.882,5.266,5.266,0,0,0-3.788-3.361,6.513,6.513,0,0,0,1.472-4.1V13.9a6.583,6.583,0,1,0-13.166,0v5.266a6.517,6.517,0,0,0,1.467,4.091,5.266,5.266,0,0,0-4.1,5.125v2.633H4.633v-7.9a1.317,1.317,0,0,0-2.633,0V57.346a6.591,6.591,0,0,0,6.583,6.583H29.065l-2.962,7.9h-5.67a6.591,6.591,0,0,0-6.583,6.583,1.317,1.317,0,0,0,1.317,1.317H49.4a1.317,1.317,0,1,0,0-2.633H16.707a3.958,3.958,0,0,1,3.725-2.633h42.13a3.958,3.958,0,0,1,3.725,2.633H54.663a1.317,1.317,0,1,0,0,2.633H67.828a1.317,1.317,0,0,0,1.317-1.317,6.591,6.591,0,0,0-6.583-6.583h-5.67l-2.962-7.9H74.411a6.591,6.591,0,0,0,6.583-6.583V44.181A1.317,1.317,0,0,0,79.678,42.864ZM48.08,54.713a1.317,1.317,0,0,1,2.633,0V56.03a1.317,1.317,0,0,1-2.633,0Zm0-44.763A1.317,1.317,0,1,1,49.4,11.267,1.317,1.317,0,0,1,48.08,9.95Zm3.95,7.9a9.216,9.216,0,0,1,18.432,0,6.6,6.6,0,0,1-3.273,5.661,5.148,5.148,0,0,0-.827-.263,6.517,6.517,0,0,0,1.467-4.081V16.533a1.317,1.317,0,0,0-1.317-1.317,5.078,5.078,0,0,1-3.564-1.476l-.772-.772a1.317,1.317,0,0,0-1.862,0l-.772.772a5.078,5.078,0,0,1-3.564,1.476,1.317,1.317,0,0,0-1.317,1.317v2.633a6.517,6.517,0,0,0,1.467,4.091,5.149,5.149,0,0,0-.827.263A6.6,6.6,0,0,1,52.03,17.849ZM57.3,19.166V17.734a7.751,7.751,0,0,0,3.95-1.975,7.751,7.751,0,0,0,3.95,1.975v1.432a3.95,3.95,0,1,1-7.9,0Zm-2.633,9.216A2.633,2.633,0,0,1,57.3,25.749h7.9a2.633,2.633,0,0,1,2.633,2.633v2.633H54.663ZM19.115,19.166v-3.95h7.9v3.95a3.95,3.95,0,1,1-7.9,0Zm3.95-9.216a3.958,3.958,0,0,1,3.725,2.633H19.341A3.958,3.958,0,0,1,23.065,9.95Zm36.864,39.5V45.5h7.9v3.95a3.95,3.95,0,0,1-7.9,0Zm0-9.216h3.95A3.958,3.958,0,0,1,67.6,42.864H59.929ZM4.633,57.346v-23.7H40.181V61.3H30.965V58.663a5.266,5.266,0,0,0-4.1-5.125,6.517,6.517,0,0,0,1.467-4.091V46.814A1.317,1.317,0,0,0,27.015,45.5a11.7,11.7,0,0,1-6.507-1.976l-.657-.441a1.317,1.317,0,0,0-1.662.165l-2.633,2.633a1.317,1.317,0,0,0-.391.936v2.633a6.517,6.517,0,0,0,1.467,4.091,5.15,5.15,0,0,0-.737.229,6.613,6.613,0,0,1-3.363-5.714,9.216,9.216,0,0,1,9.661-9.128,9.517,9.517,0,0,1,8.771,9.587,9.865,9.865,0,0,0,2.908,7.021L35.3,56.961A1.316,1.316,0,1,0,37.162,55.1l-1.427-1.427a7.252,7.252,0,0,1-2.137-5.16,12.032,12.032,0,0,0-11.28-12.218,11.742,11.742,0,0,0-7.537,2.263,3.942,3.942,0,1,0-4.175,5.561A11.849,11.849,0,0,0,9.9,48.032a9.2,9.2,0,0,0,3.767,7.406,5.218,5.218,0,0,0-1.134,3.226V61.3H8.583a3.95,3.95,0,0,1-3.95-3.95Zm13.166-7.9V47.359l1.486-1.486a14.309,14.309,0,0,0,6.413,2.2v1.376a3.95,3.95,0,0,1-7.9,0Zm0,6.583h7.9a2.633,2.633,0,0,1,2.633,2.633V61.3H15.166V58.663A2.633,2.633,0,0,1,17.8,56.03ZM11.216,41.548a1.317,1.317,0,1,1,1.317-1.317A1.317,1.317,0,0,1,11.216,41.548ZM54.08,71.829H28.915l2.962-7.9h19.24ZM57.3,61.3V58.663a2.633,2.633,0,0,1,2.633-2.633h7.9a2.633,2.633,0,0,1,2.633,2.633V61.3Z" transform="translate(-2 -0.734)" fill="#fff"/>
      <path id="Path_1137" data-name="Path 1137" d="M74.411,2H8.583A6.591,6.591,0,0,0,2,8.583V19.115a1.317,1.317,0,1,0,2.633,0V8.583a3.95,3.95,0,0,1,3.95-3.95H74.411a3.95,3.95,0,0,1,3.95,3.95v31.6a1.317,1.317,0,1,0,2.633,0V8.583A6.591,6.591,0,0,0,74.411,2Z" transform="translate(-2 -2)" fill="#fff"/>
      <path id="Path_1138" data-name="Path 1138" d="M35,32.95A3.95,3.95,0,1,0,38.95,29,3.95,3.95,0,0,0,35,32.95Zm5.266,0a1.317,1.317,0,1,1-1.317-1.317A1.317,1.317,0,0,1,40.266,32.95Z" transform="translate(8.447 6.547)" fill="#fff"/>
      <path id="Path_1139" data-name="Path 1139" d="M13.9,9.95A3.95,3.95,0,1,0,9.95,13.9,3.95,3.95,0,0,0,13.9,9.95Zm-5.266,0A1.317,1.317,0,1,1,9.95,11.266,1.317,1.317,0,0,1,8.633,9.95Z" transform="translate(-0.734 -0.734)" fill="#fff"/>
    </g>
  </g>
</svg>
