<svg xmlns="http://www.w3.org/2000/svg" width="20.003" height="20" viewBox="0 0 20.003 20">
  <g id="pie-chart" transform="translate(0)">
    <path id="Path_1159" data-name="Path 1159" d="M3.771,16.759a.714.714,0,0,1-.652-.422A10,10,0,0,1,12.248,2.25a.714.714,0,0,1,.714.714V12.25a.714.714,0,0,1-.423.652L4.062,16.694a.711.711,0,0,1-.291.065Z" transform="translate(-2.245 -2.25)" fill="#a2b2c5"/>
    <path id="Path_1160" data-name="Path 1160" d="M16.525,4.79a.357.357,0,0,0-.428.349v8.036a2.146,2.146,0,0,1-1.268,1.956l-7.7,3.446a.357.357,0,0,0-.15.527,9.3,9.3,0,0,0,2.163,2.25A9.287,9.287,0,1,0,16.525,4.79Z" transform="translate(-3.951 -3.175)" fill="#a2b2c5"/>
  </g>
</svg>
