<svg xmlns="http://www.w3.org/2000/svg" width="21.668" height="20" viewBox="0 0 21.668 20">
  <path id="share-square-o" d="M18.334,12.879v3.372A3.756,3.756,0,0,1,14.584,20H3.75A3.612,3.612,0,0,1,1.1,18.9,3.612,3.612,0,0,1,0,16.251V5.417a3.612,3.612,0,0,1,1.1-2.65,3.612,3.612,0,0,1,2.65-1.1h3.32a.422.422,0,0,1,.416.417.38.38,0,0,1-.339.416,8.717,8.717,0,0,0-1.732.781.6.6,0,0,1-.208.052H3.75a2.006,2.006,0,0,0-1.472.612,2.006,2.006,0,0,0-.612,1.472V16.251a2.006,2.006,0,0,0,.612,1.472,2.006,2.006,0,0,0,1.472.612H14.584a2.09,2.09,0,0,0,2.084-2.084V13.465a.41.41,0,0,1,.234-.377,2.74,2.74,0,0,0,.7-.481.387.387,0,0,1,.456-.1.393.393,0,0,1,.273.377ZM21.42,6.42l-5,5a.774.774,0,0,1-.586.247.906.906,0,0,1-.326-.065A.778.778,0,0,1,15,10.835v-2.5H12.917q-4.206,0-5.7,1.706Q5.664,11.823,6.25,16.2a.4.4,0,0,1-.261.443.716.716,0,0,1-.156.026.409.409,0,0,1-.339-.169q-.13-.182-.273-.4T4.707,15.2q-.371-.67-.644-1.3a10.479,10.479,0,0,1-.5-1.484,6.19,6.19,0,0,1-.228-1.589q0-.638.046-1.185a9.028,9.028,0,0,1,.182-1.172,6.108,6.108,0,0,1,.365-1.146A5.976,5.976,0,0,1,4.538,6.27a5.1,5.1,0,0,1,.892-.964,6.919,6.919,0,0,1,1.23-.8,8.461,8.461,0,0,1,1.621-.631,13.849,13.849,0,0,1,2.076-.4,21.255,21.255,0,0,1,2.559-.143H15V.834a.778.778,0,0,1,.508-.768A.906.906,0,0,1,15.834,0a.8.8,0,0,1,.586.247l5,5a.818.818,0,0,1,0,1.172Z" transform="translate(0 -0.001)" fill="#007bff"/>
</svg>
