<svg xmlns="http://www.w3.org/2000/svg" width="22.076" height="17.936" viewBox="0 0 22.076 17.936">
  <g id="twitter_icon" data-name="twitter icon" transform="translate(0 0)">
    <path id="twitter_icon-2" data-name="twitter icon" d="M1246.348,31.6a9.468,9.468,0,0,1-2.608.715,4.5,4.5,0,0,0,1.992-2.5,9,9,0,0,1-2.872,1.095,4.525,4.525,0,0,0-7.827,3.1,4.635,4.635,0,0,0,.1,1.032,12.815,12.815,0,0,1-9.33-4.734,4.529,4.529,0,0,0,1.392,6.049,4.462,4.462,0,0,1-2.044-.559v.051a4.545,4.545,0,0,0,3.625,4.447,4.505,4.505,0,0,1-1.186.15,3.9,3.9,0,0,1-.859-.079,4.572,4.572,0,0,0,4.231,3.154,9.1,9.1,0,0,1-5.613,1.93,8.694,8.694,0,0,1-1.082-.061A12.883,12.883,0,0,0,1244.1,34.534c0-.2-.007-.393-.017-.584a9.049,9.049,0,0,0,2.269-2.35" transform="translate(-1224.272 -29.477)" fill="#505c69"/>
  </g>
</svg>
