<svg xmlns="http://www.w3.org/2000/svg" width="21.429" height="20" viewBox="0 0 21.429 20">
  <path id="users" d="M6.618,10a3.848,3.848,0,0,0-2.958,1.429h-1.5a2.559,2.559,0,0,1-1.54-.452A1.529,1.529,0,0,1,0,9.654q0-3.94,1.384-3.94a2.14,2.14,0,0,1,.486.235,7.357,7.357,0,0,0,1.088.474,3.915,3.915,0,0,0,1.328.24A4.488,4.488,0,0,0,5.77,6.407a5.553,5.553,0,0,0-.056.737A4.914,4.914,0,0,0,6.618,10Zm11.953,7.11a2.781,2.781,0,0,1-.815,2.115A3.01,3.01,0,0,1,15.592,20H5.837a3.009,3.009,0,0,1-2.165-.776,2.784,2.784,0,0,1-.815-2.115q0-.592.039-1.155a11.4,11.4,0,0,1,.157-1.217,9.523,9.523,0,0,1,.3-1.211,5.7,5.7,0,0,1,.48-1.088,3.942,3.942,0,0,1,.692-.9,2.9,2.9,0,0,1,.954-.6,3.356,3.356,0,0,1,1.245-.223,1.311,1.311,0,0,1,.48.24q.368.24.815.536a4.9,4.9,0,0,0,1.194.536,5.18,5.18,0,0,0,4.207-.536q.447-.3.815-.536a1.311,1.311,0,0,1,.48-.24,3.353,3.353,0,0,1,1.245.223,2.91,2.91,0,0,1,.954.6,3.92,3.92,0,0,1,.692.9,5.752,5.752,0,0,1,.48,1.088,9.454,9.454,0,0,1,.3,1.211,11.4,11.4,0,0,1,.157,1.217q.039.564.039,1.155ZM7.143,2.857a2.754,2.754,0,0,1-.837,2.02,2.75,2.75,0,0,1-2.02.837,2.756,2.756,0,0,1-2.02-.837,2.752,2.752,0,0,1-.837-2.02A2.752,2.752,0,0,1,2.265.837,2.756,2.756,0,0,1,4.286,0a2.75,2.75,0,0,1,2.02.837A2.754,2.754,0,0,1,7.143,2.857ZM15,7.143a4.131,4.131,0,0,1-1.255,3.03,4.126,4.126,0,0,1-3.03,1.255,4.132,4.132,0,0,1-3.03-1.255,4.128,4.128,0,0,1-1.255-3.03,4.128,4.128,0,0,1,1.255-3.03,4.132,4.132,0,0,1,3.03-1.255,4.126,4.126,0,0,1,3.03,1.255A4.131,4.131,0,0,1,15,7.143Zm6.429,2.511a1.53,1.53,0,0,1-.625,1.323,2.554,2.554,0,0,1-1.54.452h-1.5A3.848,3.848,0,0,0,14.811,10a4.914,4.914,0,0,0,.9-2.857,5.554,5.554,0,0,0-.056-.737,4.488,4.488,0,0,0,1.485.257,3.918,3.918,0,0,0,1.328-.24,7.32,7.32,0,0,0,1.088-.474,2.123,2.123,0,0,1,.486-.235q1.384,0,1.384,3.94ZM20,2.857a2.754,2.754,0,0,1-.837,2.02,2.857,2.857,0,0,1-4.04,0,2.752,2.752,0,0,1-.837-2.02,2.752,2.752,0,0,1,.837-2.02,2.857,2.857,0,0,1,4.04,0A2.754,2.754,0,0,1,20,2.857Z" transform="translate(0 0)" fill="#007bff"/>
</svg>
