<svg xmlns="http://www.w3.org/2000/svg" width="235" height="45" viewBox="0 0 235 45"><defs><style>.a{fill:#0091d9;}.b{fill:#858688;}</style></defs><g transform="translate(-138.71 -94.652)"><g transform="translate(138.71 95.076)"><path class="a" d="M168.48,132.2a5.574,5.574,0,0,1-.424,2.178l-9.681,20.936c-1.21,2.541-2.42,3.751-4.72,3.751-2.36,0-3.752-1.15-4.9-3.751l-9.621-21a5.947,5.947,0,0,1-.424-2.057,3.549,3.549,0,0,1,3.631-3.57,3.853,3.853,0,0,1,3.51,2.239l7.806,18.637L161.4,130.93a3.853,3.853,0,0,1,3.51-2.239A3.413,3.413,0,0,1,168.48,132.2Z" transform="translate(-138.71 -114.491)"/><path class="a" d="M220.556,100.607a4.643,4.643,0,0,1,4.84-4.918,4.579,4.579,0,0,1,4.84,4.918c0,3.013-1.875,5.042-4.84,5.042A4.71,4.71,0,0,1,220.556,100.607Zm8.471,12.6v23.3a3.772,3.772,0,0,1-3.993,3.751,3.826,3.826,0,0,1-4.054-3.751v-23.3a3.826,3.826,0,0,1,4.054-3.75A3.772,3.772,0,0,1,229.027,113.212Z" transform="translate(-187.092 -95.689)"/><path class="a" d="M307.82,140.188v15.188a3.746,3.746,0,0,1-3.994,3.691,3.837,3.837,0,0,1-4.054-3.691V142c0-4.114-1.392-6.293-4.72-6.293-3.63,0-5.93,2.6-5.93,6.172v13.494a4.006,4.006,0,0,1-7.987,0V141.822c0-4.054-1.453-6.112-4.78-6.112-3.57,0-5.87,2.663-5.87,6.172v13.494a3.746,3.746,0,0,1-3.993,3.691,3.8,3.8,0,0,1-4.054-3.691v-23.3a3.464,3.464,0,0,1,3.57-3.389c2.178,0,3.207,1.331,3.51,3.268l.181,1.452a11.006,11.006,0,0,1,9.258-4.72c4.356,0,7.382,1.876,8.955,5.144a11.08,11.08,0,0,1,9.681-5.144C304.552,128.691,307.82,133.048,307.82,140.188Z" transform="translate(-211.851 -114.491)"/><path class="a" d="M413.5,154.105a3.307,3.307,0,0,1-2.057,3.086,21.373,21.373,0,0,1-9.5,1.875c-9.984,0-15.188-5.991-15.188-15.369,0-9.016,5.628-15.007,14.462-15.007,8.108,0,13.07,5.567,13.07,13.191,0,2.784-1.089,3.873-3.812,3.873H394.928c.484,4.417,2.783,6.656,7.866,6.656a13.722,13.722,0,0,0,4.78-.787,12.086,12.086,0,0,1,2.965-.787A2.947,2.947,0,0,1,413.5,154.105Zm-18.577-12.949h11.739c-.3-4.417-2.481-6.172-5.506-6.172C397.832,134.984,395.533,136.557,394.928,141.156Z" transform="translate(-285.342 -114.491)"/></g><g transform="translate(277.013 94.652)"><path class="b" d="M467.282,156.888c-.484-.242-.6-.484-.6-.847a.7.7,0,0,1,.726-.726c.727,0,3.449,2.178,9.561,2.178,6.414,0,9.621-1.815,9.621-5.93,0-10.287-19.544-3.026-19.544-15.43,0-3.752,3.025-7.443,10.226-7.443,6.293,0,9.137,2.663,10.105,5.083a5.576,5.576,0,0,1,.424,1.573.668.668,0,0,1-.726.726c-.424,0-.666-.121-.847-.726-.787-2.663-3.026-5.083-8.774-5.083-6.656,0-8.714,2.9-8.714,6.111,0,10.105,19.545,3.51,19.545,14.946,0,4.356-2.723,7.745-11.134,7.745A20.711,20.711,0,0,1,467.282,156.888Z" transform="translate(-466.677 -114.067)"/><path class="b" d="M533.87,143.879c0-10.347,5.325-15.188,13.433-15.188,8.169,0,13.494,4.962,13.494,15.248s-5.325,15.127-13.494,15.127C539.2,159.067,533.87,154.226,533.87,143.879Zm25.232.061c0-9.137-4.538-13.675-11.8-13.675s-11.739,4.538-11.739,13.675,4.477,13.554,11.739,13.554S559.1,153.076,559.1,143.939Z" transform="translate(-506.398 -114.067)"/><path class="b" d="M617.627,102.523v6.887h9.379a.657.657,0,0,1,.726.676.722.722,0,0,1-.726.8h-9.379v27.3a.872.872,0,0,1-.847.861.834.834,0,0,1-.847-.861v-27.3h-5.264a.738.738,0,0,1,0-1.476h5.264v-6.948c0-5.6,2.481-7.809,7.079-7.809a12.433,12.433,0,0,1,4.478.738.849.849,0,0,1,.726.86c0,.492-.363.861-1.029.615a11.816,11.816,0,0,0-3.812-.615C619.624,96.251,617.627,97.727,617.627,102.523Z" transform="translate(-551.367 -94.652)"/><path class="b" d="M678.334,118.758a.759.759,0,0,1-.727.8h-9.378v22.247c0,4.129,1.815,5.054,4.235,5.054a9.8,9.8,0,0,0,3.752-.616c.666-.185,1.029.062,1.029.555a1.093,1.093,0,0,1-.787.986,15.709,15.709,0,0,1-4.054.616c-3.449,0-5.87-1.109-5.87-6.656V119.559h-4.72a.754.754,0,0,1-.666-.8.692.692,0,0,1,.726-.678h4.659v-7.765a.835.835,0,0,1,.847-.863.873.873,0,0,1,.847.863v7.765h9.439A.678.678,0,0,1,678.334,118.758Z" transform="translate(-581.637 -103.401)"/></g></g></svg>