<svg id="youtube_icon" data-name="youtube icon" xmlns="http://www.w3.org/2000/svg" width="20.531" height="14.449" viewBox="0 0 20.531 14.449">
  <path id="youtube_icon-2" data-name="youtube icon" d="M1175.7,31.617c-.741-.882-2.109-1.24-4.723-1.24h-9.485c-2.674,0-4.064.382-4.8,1.321-.719.914-.719,2.262-.719,4.126v3.555c0,3.613.853,5.448,5.523,5.448h9.485c2.267,0,3.522-.317,4.335-1.095.832-.8,1.189-2.1,1.189-4.353V35.823c0-1.966-.057-3.32-.8-4.206m-6.549,6.475-4.309,2.25a.642.642,0,0,1-.307.077.661.661,0,0,1-.661-.664V35.267a.657.657,0,0,1,.317-.564.665.665,0,0,1,.649-.023l4.307,2.236a.663.663,0,0,1,0,1.175" transform="translate(-1155.967 -30.377)" fill="#505c69"/>
</svg>
