<svg id="calendar-range" xmlns="http://www.w3.org/2000/svg" width="18" height="18" viewBox="0 0 18 18">
  <path id="Path_1146" data-name="Path 1146" d="M1.125,5.626V16.881A1.125,1.125,0,0,0,2.25,18.006h13.5a1.125,1.125,0,0,0,1.125-1.125V5.626ZM2.25,2.25A2.25,2.25,0,0,0,0,4.5v12.38a2.25,2.25,0,0,0,2.25,2.251h13.5A2.25,2.25,0,0,0,18,16.881V4.5A2.25,2.25,0,0,0,15.75,2.25Z" transform="translate(0 -1.132)" fill="#fff" fill-rule="evenodd"/>
  <path id="Path_1147" data-name="Path 1147" d="M7.315,0a.562.562,0,0,1,.565.559v.559a.565.565,0,0,1-1.129,0V.559A.562.562,0,0,1,7.315,0ZM17.476,0a.562.562,0,0,1,.565.559v.559a.565.565,0,0,1-1.129,0V.559A.562.562,0,0,1,17.476,0Z" transform="translate(-3.395)" fill="#fff" fill-rule="evenodd"/>
  <path id="Path_1148" data-name="Path 1148" d="M11.258,14.618A1.122,1.122,0,0,1,12.384,13.5h5.63v2.237h-5.63A1.122,1.122,0,0,1,11.258,14.618ZM2.25,16.855h4.5a1.118,1.118,0,1,1,0,2.237H2.25Z" transform="translate(-1.132 -6.732)" fill="#fff"/>
</svg>
