<svg xmlns="http://www.w3.org/2000/svg" width="25.34" height="20" viewBox="0 0 25.34 20">
  <path id="edit" d="M12.613,15l1.647-1.647L12.1,11.193,10.454,12.84v.8h1.364V15h.8Zm6.25-10.227a.294.294,0,0,0-.469.014L13.423,9.758a.322.322,0,1,0,.455.455l4.971-4.971a.293.293,0,0,0,.014-.469ZM20,13.21v2.7A4.1,4.1,0,0,1,15.909,20H4.091A3.939,3.939,0,0,1,1.2,18.8,3.944,3.944,0,0,1,0,15.909V4.091A3.939,3.939,0,0,1,1.2,1.2,3.944,3.944,0,0,1,4.091,0H15.909a3.905,3.905,0,0,1,1.662.355.433.433,0,0,1,.256.327.443.443,0,0,1-.128.412l-.7.7a.416.416,0,0,1-.455.114,2.517,2.517,0,0,0-.639-.086H4.091a2.188,2.188,0,0,0-1.605.667A2.188,2.188,0,0,0,1.819,4.09V15.908a2.188,2.188,0,0,0,.667,1.605,2.188,2.188,0,0,0,1.605.667H15.909a2.279,2.279,0,0,0,2.273-2.273V14.119a.425.425,0,0,1,.128-.313l.909-.909a.427.427,0,0,1,.5-.1A.412.412,0,0,1,20,13.21ZM18.635,2.727l4.091,4.091-9.545,9.545H9.091V12.273ZM24.942,4.6,23.636,5.909,19.545,1.818,20.851.511a1.371,1.371,0,0,1,1.932,0l2.159,2.159a1.315,1.315,0,0,1,.4.966,1.315,1.315,0,0,1-.4.966Z" fill="#007bff"/>
</svg>
