<svg xmlns="http://www.w3.org/2000/svg" width="19.5" height="20" viewBox="0 0 19.5 20">
  <g id="Group_1060" data-name="Group 1060" transform="translate(-6.375)">
    <g id="glass" transform="translate(6.375)">
      <path id="Path_1143" data-name="Path 1143" d="M17.375,9v2.5h5.9a6.985,6.985,0,0,1-6.9,6,7.555,7.555,0,0,1-7.5-7.5,7.555,7.555,0,0,1,7.5-7.5,7.017,7.017,0,0,1,5.2,2.3l1.8-1.8a9.819,9.819,0,0,0-7-3,10,10,0,0,0,0,20c5.5,0,9.5-4.5,9.5-10V9Z" transform="translate(-6.375)" fill="#147bfc"/>
    </g>
  </g>
</svg>
