<svg id="listalt" xmlns="http://www.w3.org/2000/svg" width="24.189" height="24.189" viewBox="0 0 24.189 24.189">
  <path id="listalt-2" data-name="listalt" d="M21.18,24.188H3.038A2.915,2.915,0,0,1,.9,23.3a2.908,2.908,0,0,1-.885-2.138V3.024A2.915,2.915,0,0,1,.9.886,2.91,2.91,0,0,1,3.039,0H21.18a2.915,2.915,0,0,1,2.138.886A2.91,2.91,0,0,1,24.2,3.024V21.165a3.024,3.024,0,0,1-3.024,3.024ZM22.692,6.047A1.532,1.532,0,0,0,21.18,4.536H3.039a1.452,1.452,0,0,0-1.063.449,1.452,1.452,0,0,0-.449,1.063V21.165a1.442,1.442,0,0,0,.449,1.075,1.471,1.471,0,0,0,1.063.437H21.18a1.471,1.471,0,0,0,1.063-.437,1.442,1.442,0,0,0,.449-1.075V6.047ZM20.424,21.165H8.33a.756.756,0,0,1,0-1.512H20.424a.756.756,0,0,1,0,1.512Zm0-6.047H8.33a.756.756,0,0,1,0-1.512H20.424a.756.756,0,0,1,0,1.512Zm0-6.047H8.33a.756.756,0,0,1,0-1.512H20.424a.756.756,0,0,1,0,1.512ZM5.306,21.165H3.794a.767.767,0,0,1-.756-.756V18.9a.767.767,0,0,1,.756-.756H5.306a.767.767,0,0,1,.756.756v1.512a.767.767,0,0,1-.756.756Zm0-6.047H3.794a.767.767,0,0,1-.756-.756V12.85a.767.767,0,0,1,.756-.756H5.306a.767.767,0,0,1,.756.756v1.512a.767.767,0,0,1-.756.756Zm0-6.047H3.794a.767.767,0,0,1-.756-.756V6.8a.767.767,0,0,1,.756-.756H5.306a.767.767,0,0,1,.756.756V8.315a.767.767,0,0,1-.756.756Z" transform="translate(-0.015)" fill="#007bff"/>
</svg>
