<svg xmlns="http://www.w3.org/2000/svg" width="88.487" height="85.031" viewBox="0 0 88.487 85.031">
  <g id="multiscreen" transform="translate(0 -10)">
    <path id="Path_1140" data-name="Path 1140" d="M83.53,10H78.291a1.3,1.3,0,0,0,0,2.592H83.53A2.368,2.368,0,0,1,85.9,14.958v32.51H41.36V39.35a2.669,2.669,0,0,0-2.666-2.666H14.9V14.958a2.368,2.368,0,0,1,2.366-2.366H70.859a1.3,1.3,0,0,0,0-2.592H17.27a4.964,4.964,0,0,0-4.958,4.958V36.684H2.666A2.669,2.669,0,0,0,0,39.35V85.971a2.669,2.669,0,0,0,2.666,2.666H29.741v2.516a3.889,3.889,0,0,0,2.694,3.683l.061.021.021.006a3.9,3.9,0,0,0,1.137.169H47.8a3.9,3.9,0,0,0,1.131-.167l.028-.008.055-.018a3.889,3.889,0,0,0,2.7-3.685V71.627h15.2a1.3,1.3,0,0,0,0-2.592H61.587L59.8,61.252H83.529a5,5,0,0,0,4.958-4.958V14.958A4.963,4.963,0,0,0,83.53,10ZM85.9,50.06v6.231a2.378,2.378,0,0,1-2.363,2.368H51.709A3.917,3.917,0,0,0,47.8,55H41.36V50.06ZM47.8,57.588a1.322,1.322,0,0,1,1.321,1.321V86.891H32.333V58.908a1.322,1.322,0,0,1,1.321-1.321H47.8ZM2.592,85.971c.073-.074-.141-46.71.073-46.694H38.694a.073.073,0,0,1,.073.073V55H36.6V42.722a1.3,1.3,0,0,0-1.3-1.3H6.054a1.3,1.3,0,0,0-1.3,1.3V64.095a1.3,1.3,0,0,0,2.592,0V44.018H34.009V55a4.007,4.007,0,0,0-4.269,3.913V77.73H7.351V71.264a1.3,1.3,0,0,0-2.592,0v7.762a1.3,1.3,0,0,0,1.3,1.3H29.741v5.722C29.667,85.971,2.577,86.184,2.592,85.971Zm31.069,6.468a1.359,1.359,0,0,1-.388-.056l-.008,0-.02-.006a1.323,1.323,0,0,1-.913-1.256V89.483H49.126v1.635a1.323,1.323,0,0,1-.913,1.256l-.02.006-.008,0a1.365,1.365,0,0,1-.388.056H33.661Zm25.265-23.4H51.718V61.252h5.42Z" fill="#fff"/>
    <path id="Path_1141" data-name="Path 1141" d="M108.393,425.793h-2.7a1.3,1.3,0,0,0,0,2.592h2.7A1.3,1.3,0,0,0,108.393,425.793Z" transform="translate(-86.364 -343.933)" fill="#fff"/>
    <path id="Path_1142" data-name="Path 1142" d="M222.9,295.584h2.285a1.3,1.3,0,0,0,0-2.592H222.9A1.3,1.3,0,0,0,222.9,295.584Z" transform="translate(-183.308 -234.083)" fill="#fff"/>
  </g>
</svg>
