<svg xmlns="http://www.w3.org/2000/svg" width="36" height="36" viewBox="0 0 36 36">
  <g id="Group_897" data-name="Group 897" transform="translate(-594 -821)">
    <g id="Rectangle_1929" data-name="Rectangle 1929" transform="translate(594 821)" fill="none" stroke="#007bff" stroke-width="1">
      <rect width="36" height="36" rx="18" stroke="none"/>
      <rect x="0.5" y="0.5" width="35" height="35" rx="17.5" fill="none"/>
    </g>
    <path id="Icon_awesome-plus" data-name="Icon awesome-plus" d="M14.857,8.536H9.714V3.393A1.143,1.143,0,0,0,8.571,2.25H7.429A1.143,1.143,0,0,0,6.286,3.393V8.536H1.143A1.143,1.143,0,0,0,0,9.679v1.143a1.143,1.143,0,0,0,1.143,1.143H6.286v5.143A1.143,1.143,0,0,0,7.429,18.25H8.571a1.143,1.143,0,0,0,1.143-1.143V11.964h5.143A1.143,1.143,0,0,0,16,10.821V9.679A1.143,1.143,0,0,0,14.857,8.536Z" transform="translate(604 828.75)" fill="#007bff"/>
  </g>
</svg>
