<svg xmlns="http://www.w3.org/2000/svg" width="20" height="20" viewBox="0 0 20 20">
  <g id="play-button-r" transform="translate(-1.5 -1.5)">
    <path id="Path_1174" data-name="Path 1174" d="M17.864,3.318H5.136A1.818,1.818,0,0,0,3.318,5.136V17.864a1.818,1.818,0,0,0,1.818,1.818H17.864a1.818,1.818,0,0,0,1.818-1.818V5.136A1.818,1.818,0,0,0,17.864,3.318ZM5.136,1.5A3.636,3.636,0,0,0,1.5,5.136V17.864A3.636,3.636,0,0,0,5.136,21.5H17.864A3.636,3.636,0,0,0,21.5,17.864V5.136A3.636,3.636,0,0,0,17.864,1.5Z" fill="#007bff" fill-rule="evenodd"/>
    <path id="Path_1175" data-name="Path 1175" d="M20.455,15.441,15,19.378V11.505Z" transform="translate(-5.318 -3.941)" fill="#007bff"/>
  </g>
</svg>
