<svg xmlns="http://www.w3.org/2000/svg" width="88.874" height="88.904" viewBox="0 0 88.874 88.904">
  <g id="quick" transform="translate(-0.004)">
    <path id="Path_1124" data-name="Path 1124" d="M212.985,108.652l.421,2.934a11.853,11.853,0,1,0-8.467-2.006l1.7-2.43a8.89,8.89,0,1,1,6.351,1.5Zm0,0" transform="translate(-162.841 -71.701)" fill="#fff"/>
    <path id="Path_1125" data-name="Path 1125" d="M123.425,0H52.3a4.445,4.445,0,0,0-4.445,4.445V35.56h2.963V10.372A1.482,1.482,0,0,1,52.3,8.89h71.121a1.482,1.482,0,0,1,1.482,1.482v35.56a1.482,1.482,0,0,1-1.482,1.482H92.31v2.963h31.115a4.445,4.445,0,0,0,4.445-4.445V4.445A4.445,4.445,0,0,0,123.425,0Zm0,5.927H52.3a4.392,4.392,0,0,0-1.482.273V4.445A1.482,1.482,0,0,1,52.3,2.963h71.121a1.482,1.482,0,0,1,1.482,1.482V6.2A4.392,4.392,0,0,0,123.425,5.927Zm0,0" transform="translate(-38.992)" fill="#fff"/>
    <path id="Path_1126" data-name="Path 1126" d="M98.823,82.963h4.445V80H97.341a1.482,1.482,0,0,0-1.482,1.482v5.927h2.963Zm0,0" transform="translate(-78.102 -65.183)" fill="#fff"/>
    <path id="Path_1127" data-name="Path 1127" d="M399.268,87.408V81.482A1.482,1.482,0,0,0,397.786,80h-5.927v2.963H396.3v4.445Zm0,0" transform="translate(-319.279 -65.183)" fill="#fff"/>
    <path id="Path_1128" data-name="Path 1128" d="M391.859,191.408h5.927a1.482,1.482,0,0,0,1.482-1.482V184H396.3v4.445h-4.445Zm0,0" transform="translate(-319.279 -149.921)" fill="#fff"/>
    <path id="Path_1129" data-name="Path 1129" d="M351.859,144h2.963v2.963h-2.963Zm0,0" transform="translate(-286.688 -117.33)" fill="#fff"/>
    <path id="Path_1130" data-name="Path 1130" d="M48.363,157.615l2.387-2.387a1.482,1.482,0,0,0,0-2.1l-4.193-4.193a1.482,1.482,0,0,0-2.1,0l-2.387,2.387a26.5,26.5,0,0,0-10.982-4.554V144.89a2.964,2.964,0,0,0,2.963-2.963v-2.963A2.964,2.964,0,0,0,31.093,136H22.2a2.964,2.964,0,0,0-2.963,2.963v2.963A2.964,2.964,0,0,0,22.2,144.89v1.883a26.5,26.5,0,0,0-10.982,4.554l-2.387-2.387a1.482,1.482,0,0,0-2.1,0l-4.193,4.193a1.482,1.482,0,0,0,0,2.1l2.387,2.387a26.671,26.671,0,1,0,43.431,0Zm-2.853-5.532,2.1,2.1L46.5,155.292a26.905,26.905,0,0,0-2.1-2.1ZM22.2,138.963h8.89v2.963H22.2Zm2.963,5.927h2.963v1.557c-.493-.027-.981-.075-1.482-.075s-.988.048-1.482.075ZM5.688,154.18l2.1-2.1L8.9,153.193a26.9,26.9,0,0,0-2.1,2.1Zm20.96,42.569a23.707,23.707,0,1,1,23.707-23.707A23.707,23.707,0,0,1,26.648,196.749Zm0,0" transform="translate(0 -110.811)" fill="#fff"/>
    <path id="Path_1131" data-name="Path 1131" d="M128.75,316.445a4.445,4.445,0,1,0-4.445,4.445,4.389,4.389,0,0,0,1.9-.444l7.42,7.42,2.1-2.1-7.419-7.421A4.388,4.388,0,0,0,128.75,316.445Zm-5.927,0a1.482,1.482,0,1,1,1.482,1.482A1.482,1.482,0,0,1,122.823,316.445Zm0,0" transform="translate(-97.657 -254.214)" fill="#fff"/>
    <path id="Path_1132" data-name="Path 1132" d="M174.184,237.922l-.988,2.794a16.32,16.32,0,0,1,9.938,20.8l2.794.988A19.285,19.285,0,0,0,174.184,237.922Zm0,0" transform="translate(-141.114 -193.856)" fill="#fff"/>
    <path id="Path_1133" data-name="Path 1133" d="M147.069,232.267a19.394,19.394,0,0,0-3.209-.267v2.963a16.443,16.443,0,0,1,2.717.225Zm0,0" transform="translate(-117.212 -189.031)" fill="#fff"/>
    <path id="Path_1134" data-name="Path 1134" d="M319.859,310.225v2.963A25.217,25.217,0,0,0,345.048,288h-2.963A22.251,22.251,0,0,1,319.859,310.225Zm0,0" transform="translate(-260.615 -234.659)" fill="#fff"/>
    <path id="Path_1135" data-name="Path 1135" d="M287.859,408h2.963v2.963h-2.963Zm0,0" transform="translate(-234.541 -332.434)" fill="#fff"/>
  </g>
</svg>
